<svg xmlns="http://www.w3.org/2000/svg" viewBox="0 0 32 32">
  <rect width="32" height="32" rx="6" fill="#0d1117"/>
  <g transform="translate(2, 11) scale(0.756)">
    <path d="M2.518.194l3.969,10.514c.116.31.329.445.64.445s.503-.135.639-.445L11.928.194h2.537l-4.608,11.618c-.484,1.22-1.375,1.685-2.73,1.685-1.278,0-2.266-.407-2.75-1.685L0,.194h2.518Z" fill="#fff"/>
    <path d="M17.871.194c2.382,0,3.04.852,3.04,3.118v9.953h-2.285V3.466c0-.697-.251-.988-.948-.988h-1.182V.194h1.375Z" fill="#fff"/>
    <path d="M37.041,6.739c0,4.376-2.092,6.719-5.906,6.719s-5.906-2.343-5.906-6.719S27.34,0,31.135,0s5.906,2.343,5.906,6.739ZM27.476,6.719c0,3.001,1.104,4.454,3.659,4.454s3.641-1.452,3.641-4.454c0-2.982-1.104-4.434-3.641-4.434-2.556,0-3.659,1.452-3.659,4.434Z" fill="#fff"/>
  </g>
</svg>
